<svg xmlns="http://www.w3.org/2000/svg" width="1016.49" height="191.84" viewBox="0 0 1016.49 191.84">
  <defs>
    <style>
      .a {
        fill: #00a151;
      }

      .b {
        fill: #1d1d1b;
      }
    </style>
  </defs>
  <title>sustainability-logo</title>
  <path class="a" d="M66.11,196.22c-1-1.9,3.1-3.69,5.2-5.78,10.29-10.15,20.46-21.33,31.75-32.33,3.74-3.63,9.34-10.4,13.28-12.11,7.39-3.25,16.25-3.78,23.67-6.36,14.29-5,26.85-11,38.11-21.37,4.9-4.52,11.89-10.72,11-18.47-1.18-9.81-17.56-12.44-27.15-12.12C135,88.53,106.13,100.13,88,114.8c-11.78,9.56-22.26,27,.58,31.75C72,164,54.45,180.51,37.24,197.38c-27.93-1.23-58.22-53-5.68-105.06S245.45,5.54,245.45,5.54s25.31,86.6-25.86,134.12c-47.2,43.82-113.78,52.83-153.48,56.56" transform="translate(-2.81 -5.54)"/>
  <g>
    <path class="b" d="M300.16,128.88c2.56,5.65,6.72,14.83,24.43,14.83,11.2,0,17.28-3.09,17.28-8.75,0-5.44-5.33-8.32-18.35-9.92-16.43-2-32.11-8.53-32.11-23.9a22.78,22.78,0,0,1,14.51-21.76c4.91-2,11.2-3,19-3,22.19,0,30.72,10.67,33.18,15.57l-11.73,9.92C341.65,93.67,335.47,90,325.23,90c-9.92,0-15.68,3.09-15.68,8.21,0,4.69,4.05,6.83,16.75,8.75,20.16,3.09,33.71,8.85,33.71,25,0,6.72-2.13,12.37-6.29,16.64-6.08,6.29-14.61,9-28.91,9-23.15,0-30.83-7.15-37-17.6Z" transform="translate(-2.81 -5.54)"/>
    <path class="b" d="M373.24,102.31h15.36v35.84c0,5.23,3.41,8.64,8.75,8.64a11.37,11.37,0,0,0,10.88-10.88v-33.6h15.15v52.8H408.13v-7.68c-3.95,4.48-8.21,9.17-18.13,9.17s-16.75-6.29-16.75-15.36V102.31Z" transform="translate(-2.81 -5.54)"/>
    <path class="b" d="M447.83,137.52c2,7.15,6.51,10.45,14.19,10.45,5.33,0,8.85-2.45,8.85-5.87,0-3.2-3.2-5.23-11.52-7-15.47-3.41-21.76-8.75-21.76-18.67,0-9.6,7.89-15.57,20.59-15.57,9.39,0,20.37,1.17,23.9,14.08l-13.44,2.35c-0.43-5.44-3.84-7.89-10.88-7.89-4.16,0-7.47,1.92-7.47,4.48,0,3.09,2.67,4.59,11.41,6.61,14.29,3.2,22.51,7.68,22.51,17.81a17,17,0,0,1-5.12,12.37c-4.16,4.16-10.35,6-19.42,6-8.43,0-14.83-2.24-19.41-6.93-1.92-2-2.88-3.52-4.59-7.47Z" transform="translate(-2.81 -5.54)"/>
    <path class="b" d="M514.81,78v24.32h10.35v10.56H514.81V138c0,4.69,1.6,6.93,5.33,6.93a15.4,15.4,0,0,0,4.8-1v10.24a32.38,32.38,0,0,1-11.63,2.24c-9.49,0-13.87-4.05-13.87-12.91V112.87h-9.17V102.31h9.17V85.89Z" transform="translate(-2.81 -5.54)"/>
    <path class="b" d="M582.53,140c0,2.88,1.6,4.8,4.16,4.8a16.08,16.08,0,0,0,2.13-.21v9.71a22.44,22.44,0,0,1-9.92,2.13c-6.83,0-9.92-2.67-11.41-9.71-3.95,6.61-8.75,9.81-16.75,9.81-10.24,0-17.07-6.51-17.07-16.43,0-15.68,15.47-17.07,21.76-17.71,6.51-.53,7.57-0.75,11.73-2.45v-2c0-5-3.09-7.79-8.75-7.79a10.68,10.68,0,0,0-10.13,6.83l-11.63-5.33c1.71-3.52,5-10.67,22.19-10.67,13.87,0,23.68,1.81,23.68,16.64V140Zm-15.36-13.65c-2.56,1.49-3.31,1.71-7.25,2.67-7.79,1.71-10.45,4.37-10.45,10.13,0,4.48,2.77,7.36,7.15,7.36a10.38,10.38,0,0,0,10.56-10.56v-9.6Z" transform="translate(-2.81 -5.54)"/>
    <path class="b" d="M600.34,102.31h15.25v52.8H600.34v-52.8Zm0.11-24.11H615.7V92.39H600.45V78.21Z" transform="translate(-2.81 -5.54)"/>
    <path class="b" d="M647.53,110.53c4.27-6.4,9.28-9.71,17-9.71,5.65,0,9.92,1.49,13.12,4.69,3.73,3.73,4.69,6.72,4.69,16.64v33H666.94v-30c0-10.67-2.13-14.4-8.43-14.4s-11,5.44-11,12.91v31.47H632.17v-52.8h15.36v8.21Z" transform="translate(-2.81 -5.54)"/>
    <path class="b" d="M743.76,140c0,2.88,1.6,4.8,4.16,4.8a16.08,16.08,0,0,0,2.13-.21v9.71a22.44,22.44,0,0,1-9.92,2.13c-6.83,0-9.92-2.67-11.41-9.71-3.95,6.61-8.75,9.81-16.75,9.81-10.24,0-17.07-6.51-17.07-16.43,0-15.68,15.47-17.07,21.76-17.71,6.51-.53,7.57-0.75,11.73-2.45v-2c0-5-3.09-7.79-8.75-7.79a10.68,10.68,0,0,0-10.13,6.83l-11.63-5.33c1.71-3.52,5-10.67,22.19-10.67,13.87,0,23.68,1.81,23.68,16.64V140ZM728.4,126.32c-2.56,1.49-3.31,1.71-7.25,2.67-7.79,1.71-10.45,4.37-10.45,10.13,0,4.48,2.77,7.36,7.15,7.36a10.38,10.38,0,0,0,10.56-10.56v-9.6Z" transform="translate(-2.81 -5.54)"/>
    <path class="b" d="M761.57,78.21h15.15v31.9c2.67-3.2,7.57-9.28,16.85-9.28,13.55,0,22,10.35,22,27.1s-8.85,28.59-21.66,28.59c-10.35,0-14.51-6.08-17.17-9.81v8.43H761.57V78.21Zm15.15,60.27c2.35,5,7.47,8.53,12.27,8.53a8.61,8.61,0,0,0,6.51-2.67c2.67-2.77,3.73-7.47,3.73-15.68,0-8.53-1.07-12.91-3.73-15.68a9.5,9.5,0,0,0-6.51-2.77c-5.55,0-10.13,3.63-12.27,10v18.24Z" transform="translate(-2.81 -5.54)"/>
    <path class="b" d="M829.14,102.31H844.4v52.8H829.14v-52.8Zm0.11-24.11H844.5V92.39H829.25V78.21Z" transform="translate(-2.81 -5.54)"/>
    <path class="b" d="M861.11,78.21h15.15v76.91H861.11V78.21Z" transform="translate(-2.81 -5.54)"/>
    <path class="b" d="M892.88,102.31h15.25v52.8H892.88v-52.8ZM893,78.21h15.25V92.39H893V78.21Z" transform="translate(-2.81 -5.54)"/>
    <path class="b" d="M942.37,78v24.32h10.35v10.56H942.37V138c0,4.69,1.6,6.93,5.33,6.93a15.4,15.4,0,0,0,4.8-1v10.24a32.38,32.38,0,0,1-11.63,2.24c-9.49,0-13.87-4.05-13.87-12.91V112.87h-9.17V102.31H927V85.89Z" transform="translate(-2.81 -5.54)"/>
    <path class="b" d="M961.59,102.31h15.58l14.51,38.4,12.27-38.4h15.36L1002,152.77c-5,14.83-7.68,22.72-25,22.72a64.9,64.9,0,0,1-15.25-1.71V160.24c4.8,1.39,8,2,11.63,1.92,5.65,0,8.32-1.71,9.6-6.19Z" transform="translate(-2.81 -5.54)"/>
  </g>
</svg>
